<mxfile host="Electron" agent="Mozilla/5.0 (Windows NT 10.0; Win64; x64) AppleWebKit/537.36 (KHTML, like Gecko) draw.io/28.1.2 Chrome/138.0.7204.243 Electron/37.4.0 Safari/537.36" version="28.1.2">
  <diagram name="PÃ¡gina-1" id="PhfR5Sf7LPp2vSQRqmnG">
    <mxGraphModel dx="1426" dy="841" grid="1" gridSize="10" guides="1" tooltips="1" connect="1" arrows="1" fold="1" page="1" pageScale="1" pageWidth="4681" pageHeight="3300" math="0" shadow="0">
      <root>
        <mxCell id="0" />
        <mxCell id="1" parent="0" />
        <mxCell id="n35kWACYBgQS6dT2qCzZ-5" value="" style="edgeStyle=orthogonalEdgeStyle;rounded=0;orthogonalLoop=1;jettySize=auto;html=1;" edge="1" parent="1" source="n35kWACYBgQS6dT2qCzZ-1" target="n35kWACYBgQS6dT2qCzZ-4">
          <mxGeometry relative="1" as="geometry" />
        </mxCell>
        <mxCell id="n35kWACYBgQS6dT2qCzZ-1" value="funcionario" style="rounded=1;arcSize=10;whiteSpace=wrap;html=1;align=center;" vertex="1" parent="1">
          <mxGeometry x="190" y="200" width="100" height="40" as="geometry" />
        </mxCell>
        <mxCell id="n35kWACYBgQS6dT2qCzZ-2" value="sala" style="rounded=1;arcSize=10;whiteSpace=wrap;html=1;align=center;" vertex="1" parent="1">
          <mxGeometry x="1110" y="200" width="100" height="40" as="geometry" />
        </mxCell>
        <mxCell id="n35kWACYBgQS6dT2qCzZ-8" value="" style="edgeStyle=orthogonalEdgeStyle;rounded=0;orthogonalLoop=1;jettySize=auto;html=1;" edge="1" parent="1" source="n35kWACYBgQS6dT2qCzZ-3" target="n35kWACYBgQS6dT2qCzZ-7">
          <mxGeometry relative="1" as="geometry" />
        </mxCell>
        <mxCell id="n35kWACYBgQS6dT2qCzZ-3" value="Reserva" style="whiteSpace=wrap;html=1;align=center;" vertex="1" parent="1">
          <mxGeometry x="650" y="200" width="100" height="40" as="geometry" />
        </mxCell>
        <mxCell id="n35kWACYBgQS6dT2qCzZ-6" style="edgeStyle=orthogonalEdgeStyle;rounded=0;orthogonalLoop=1;jettySize=auto;html=1;entryX=0;entryY=0.5;entryDx=0;entryDy=0;" edge="1" parent="1" source="n35kWACYBgQS6dT2qCzZ-4" target="n35kWACYBgQS6dT2qCzZ-3">
          <mxGeometry relative="1" as="geometry" />
        </mxCell>
        <mxCell id="n35kWACYBgQS6dT2qCzZ-4" value="faz" style="rhombus;whiteSpace=wrap;html=1;rounded=1;arcSize=10;" vertex="1" parent="1">
          <mxGeometry x="430" y="180" width="80" height="80" as="geometry" />
        </mxCell>
        <mxCell id="n35kWACYBgQS6dT2qCzZ-9" style="edgeStyle=orthogonalEdgeStyle;rounded=0;orthogonalLoop=1;jettySize=auto;html=1;" edge="1" parent="1" source="n35kWACYBgQS6dT2qCzZ-7" target="n35kWACYBgQS6dT2qCzZ-2">
          <mxGeometry relative="1" as="geometry" />
        </mxCell>
        <mxCell id="n35kWACYBgQS6dT2qCzZ-7" value="seleciona" style="rhombus;whiteSpace=wrap;html=1;" vertex="1" parent="1">
          <mxGeometry x="890" y="180" width="80" height="80" as="geometry" />
        </mxCell>
        <mxCell id="n35kWACYBgQS6dT2qCzZ-11" style="edgeStyle=orthogonalEdgeStyle;rounded=0;orthogonalLoop=1;jettySize=auto;html=1;entryX=0.5;entryY=0;entryDx=0;entryDy=0;" edge="1" parent="1" source="n35kWACYBgQS6dT2qCzZ-10" target="n35kWACYBgQS6dT2qCzZ-1">
          <mxGeometry relative="1" as="geometry" />
        </mxCell>
        <mxCell id="n35kWACYBgQS6dT2qCzZ-10" value="id_funcionario" style="ellipse;whiteSpace=wrap;html=1;align=center;fontStyle=4" vertex="1" parent="1">
          <mxGeometry x="190" y="80" width="100" height="40" as="geometry" />
        </mxCell>
        <mxCell id="n35kWACYBgQS6dT2qCzZ-13" style="edgeStyle=orthogonalEdgeStyle;rounded=0;orthogonalLoop=1;jettySize=auto;html=1;entryX=0.5;entryY=1;entryDx=0;entryDy=0;" edge="1" parent="1" source="n35kWACYBgQS6dT2qCzZ-12" target="n35kWACYBgQS6dT2qCzZ-1">
          <mxGeometry relative="1" as="geometry" />
        </mxCell>
        <mxCell id="n35kWACYBgQS6dT2qCzZ-12" value="nome" style="ellipse;whiteSpace=wrap;html=1;align=center;" vertex="1" parent="1">
          <mxGeometry x="190" y="320" width="100" height="40" as="geometry" />
        </mxCell>
        <mxCell id="n35kWACYBgQS6dT2qCzZ-14" value="1" style="text;html=1;align=center;verticalAlign=middle;resizable=0;points=[];autosize=1;strokeColor=none;fillColor=none;" vertex="1" parent="1">
          <mxGeometry x="290" y="200" width="30" height="30" as="geometry" />
        </mxCell>
        <mxCell id="n35kWACYBgQS6dT2qCzZ-15" value="N" style="text;html=1;align=center;verticalAlign=middle;resizable=0;points=[];autosize=1;strokeColor=none;fillColor=none;" vertex="1" parent="1">
          <mxGeometry x="620" y="200" width="30" height="30" as="geometry" />
        </mxCell>
        <mxCell id="n35kWACYBgQS6dT2qCzZ-16" value="N" style="text;html=1;align=center;verticalAlign=middle;resizable=0;points=[];autosize=1;strokeColor=none;fillColor=none;" vertex="1" parent="1">
          <mxGeometry x="750" y="200" width="30" height="30" as="geometry" />
        </mxCell>
        <mxCell id="n35kWACYBgQS6dT2qCzZ-17" value="1" style="text;html=1;align=center;verticalAlign=middle;resizable=0;points=[];autosize=1;strokeColor=none;fillColor=none;" vertex="1" parent="1">
          <mxGeometry x="1085" y="198" width="30" height="30" as="geometry" />
        </mxCell>
        <mxCell id="n35kWACYBgQS6dT2qCzZ-19" style="edgeStyle=orthogonalEdgeStyle;rounded=0;orthogonalLoop=1;jettySize=auto;html=1;entryX=0.5;entryY=0;entryDx=0;entryDy=0;" edge="1" parent="1" source="n35kWACYBgQS6dT2qCzZ-18" target="n35kWACYBgQS6dT2qCzZ-3">
          <mxGeometry relative="1" as="geometry" />
        </mxCell>
        <mxCell id="n35kWACYBgQS6dT2qCzZ-18" value="&lt;span style=&quot;border-bottom: 1px dotted&quot;&gt;Id_reserva&lt;/span&gt;" style="ellipse;whiteSpace=wrap;html=1;align=center;" vertex="1" parent="1">
          <mxGeometry x="650" y="80" width="100" height="40" as="geometry" />
        </mxCell>
        <mxCell id="n35kWACYBgQS6dT2qCzZ-21" style="edgeStyle=orthogonalEdgeStyle;rounded=0;orthogonalLoop=1;jettySize=auto;html=1;exitX=0.5;exitY=1;exitDx=0;exitDy=0;entryX=0.25;entryY=0;entryDx=0;entryDy=0;" edge="1" parent="1" source="n35kWACYBgQS6dT2qCzZ-20" target="n35kWACYBgQS6dT2qCzZ-3">
          <mxGeometry relative="1" as="geometry" />
        </mxCell>
        <mxCell id="n35kWACYBgQS6dT2qCzZ-20" value="data" style="ellipse;whiteSpace=wrap;html=1;align=center;" vertex="1" parent="1">
          <mxGeometry x="550" y="120" width="100" height="40" as="geometry" />
        </mxCell>
        <mxCell id="n35kWACYBgQS6dT2qCzZ-23" style="edgeStyle=orthogonalEdgeStyle;rounded=0;orthogonalLoop=1;jettySize=auto;html=1;entryX=0.5;entryY=1;entryDx=0;entryDy=0;" edge="1" parent="1" source="n35kWACYBgQS6dT2qCzZ-22" target="n35kWACYBgQS6dT2qCzZ-3">
          <mxGeometry relative="1" as="geometry" />
        </mxCell>
        <mxCell id="n35kWACYBgQS6dT2qCzZ-22" value="horario" style="ellipse;whiteSpace=wrap;html=1;align=center;" vertex="1" parent="1">
          <mxGeometry x="650" y="320" width="100" height="40" as="geometry" />
        </mxCell>
        <mxCell id="n35kWACYBgQS6dT2qCzZ-25" style="edgeStyle=orthogonalEdgeStyle;rounded=0;orthogonalLoop=1;jettySize=auto;html=1;entryX=0.25;entryY=1;entryDx=0;entryDy=0;" edge="1" parent="1" source="n35kWACYBgQS6dT2qCzZ-24" target="n35kWACYBgQS6dT2qCzZ-3">
          <mxGeometry relative="1" as="geometry" />
        </mxCell>
        <mxCell id="n35kWACYBgQS6dT2qCzZ-24" value="sala" style="ellipse;whiteSpace=wrap;html=1;align=center;" vertex="1" parent="1">
          <mxGeometry x="550" y="280" width="100" height="40" as="geometry" />
        </mxCell>
      </root>
    </mxGraphModel>
  </diagram>
</mxfile>
